<svg width="20" height="26" viewBox="0 0 20 26" fill="none" xmlns="http://www.w3.org/2000/svg">
<path d="M1.11877 19.962L0.480624 19.4796H0.480624L1.11877 19.962ZM2.42712 16.2346L1.62712 16.2249V16.2346H2.42712ZM2.45458 13.981L3.25458 13.9908V13.981H2.45458ZM18.8882 19.9801L19.5359 19.5106L19.5359 19.5106L18.8882 19.9801ZM17.6291 16.2346L16.8291 16.2244V16.2346H17.6291ZM17.6566 14.0927L18.4566 14.1029V14.0927H17.6566ZM1.75692 20.4445C2.49354 19.4702 3.22712 18.0133 3.22712 16.2346H1.62712C1.62712 17.5665 1.07552 18.6927 0.480624 19.4796L1.75692 20.4445ZM3.22706 16.2444L3.25452 13.9908L1.65464 13.9713L1.62718 16.2249L3.22706 16.2444ZM19.5359 19.5106C18.966 18.7245 18.4291 17.5869 18.4291 16.2346H16.8291C16.8291 18.0143 17.533 19.4739 18.2405 20.4497L19.5359 19.5106ZM18.429 16.2449L18.4565 14.1029L16.8566 14.0824L16.8292 16.2244L18.429 16.2449ZM18.4566 14.0927C18.4566 9.40568 14.674 5.59961 10 5.59961V7.19961C13.7832 7.19961 16.8566 10.2822 16.8566 14.0927H18.4566ZM18.43 21.8246C19.0846 21.8246 19.5029 21.3629 19.6748 20.9571C19.8463 20.5524 19.877 19.981 19.5359 19.5106L18.2405 20.4497C18.2071 20.4036 18.201 20.3637 18.2001 20.3491C18.1994 20.3364 18.2015 20.3331 18.2016 20.3329C18.2021 20.3316 18.2042 20.3271 18.2095 20.32C18.2147 20.3128 18.225 20.3006 18.2426 20.2868C18.2814 20.2561 18.3481 20.2246 18.43 20.2246V21.8246ZM3.25458 13.981C3.25458 10.2322 6.27819 7.19961 10 7.19961V5.59961C5.38737 5.59961 1.65458 9.35569 1.65458 13.981H3.25458ZM1.57109 20.2246C1.65506 20.2246 1.72275 20.2575 1.76113 20.2884C1.77841 20.3023 1.78823 20.3142 1.79298 20.3208C1.79774 20.3274 1.79928 20.3312 1.79944 20.3316C1.79963 20.332 1.7996 20.332 1.79965 20.3323C1.7997 20.3326 1.8003 20.3361 1.79981 20.3432C1.79886 20.3569 1.79234 20.3976 1.75692 20.4445L0.480624 19.4796C0.124534 19.9506 0.151694 20.5313 0.319498 20.9397C0.487545 21.3487 0.905736 21.8246 1.57109 21.8246V20.2246ZM18.43 20.2246H1.57109V21.8246H18.43V20.2246ZM12.8 21.0246C12.8 22.3989 11.5958 23.5996 10 23.5996V25.1996C12.3806 25.1996 14.4 23.3782 14.4 21.0246H12.8ZM10 23.5996C8.40419 23.5996 7.2 22.3989 7.2 21.0246H5.6C5.6 23.3782 7.61936 25.1996 10 25.1996V23.5996ZM11.6 3.99961C11.6 4.88327 10.8837 5.59961 10 5.59961V7.19961C11.7673 7.19961 13.2 5.76692 13.2 3.99961H11.6ZM10 5.59961C9.11634 5.59961 8.4 4.88327 8.4 3.99961H6.8C6.8 5.76692 8.23269 7.19961 10 7.19961V5.59961ZM8.4 3.99961C8.4 3.11595 9.11634 2.39961 10 2.39961V0.799609C8.23269 0.799609 6.8 2.2323 6.8 3.99961H8.4ZM10 2.39961C10.8837 2.39961 11.6 3.11595 11.6 3.99961H13.2C13.2 2.2323 11.7673 0.799609 10 0.799609V2.39961Z" fill="#1B1B1B"/>
</svg>
