<svg width="40" height="40" viewBox="0 0 40 40" fill="none" xmlns="http://www.w3.org/2000/svg">
<path d="M19.904 27.644C19.52 27.644 19.224 27.532 19.016 27.308C18.808 27.068 18.704 26.74 18.704 26.324V16.964C18.704 16.548 18.808 16.228 19.016 16.004C19.224 15.78 19.52 15.668 19.904 15.668C20.288 15.668 20.584 15.78 20.792 16.004C21.016 16.228 21.128 16.548 21.128 16.964V26.324C21.128 26.74 21.024 27.068 20.816 27.308C20.608 27.532 20.304 27.644 19.904 27.644ZM19.904 13.172C19.424 13.172 19.048 13.052 18.776 12.812C18.52 12.572 18.392 12.236 18.392 11.804C18.392 11.356 18.52 11.02 18.776 10.796C19.048 10.556 19.424 10.436 19.904 10.436C20.384 10.436 20.752 10.556 21.008 10.796C21.28 11.02 21.416 11.356 21.416 11.804C21.416 12.236 21.28 12.572 21.008 12.812C20.752 13.052 20.384 13.172 19.904 13.172Z" fill="#E50027"/>
<rect x="1.3" y="1.3" width="37.4" height="37.4" rx="18.7" stroke="#E50027" stroke-width="2.6"/>
</svg>
