<svg width="20" height="20" viewBox="0 0 20 20" fill="none" xmlns="http://www.w3.org/2000/svg">
<path d="M9.20727 2.79302H4.20727C2.55042 2.79302 1.20728 4.13617 1.20728 5.79302V15.7931C1.20728 17.45 2.55042 18.7931 4.20727 18.7931H14.2073C15.8641 18.7931 17.2073 17.45 17.2073 15.7931L17.2073 10.7931M6.20728 13.793L9.8456 13.0599C10.0387 13.021 10.2161 12.9259 10.3554 12.7865L18.5001 4.63734C18.8906 4.24663 18.8903 3.61331 18.4995 3.22292L16.7742 1.49952C16.3835 1.1093 15.7505 1.10957 15.3602 1.50012L7.21458 9.65016C7.07557 9.78925 6.98065 9.96624 6.94169 10.159L6.20728 13.793Z" stroke="#0EC243" stroke-width="1.8" stroke-linecap="round" stroke-linejoin="round"/>
</svg>
