<svg width="15" height="15" viewBox="0 0 15 15" fill="none" xmlns="http://www.w3.org/2000/svg">
<path d="M1.82574 11.9507C1.59142 12.185 1.59142 12.5649 1.82574 12.7993C2.06005 13.0336 2.43995 13.0336 2.67426 12.7993L1.82574 11.9507ZM5.25 9.375L5.67426 8.95073C5.43995 8.71642 5.06005 8.71642 4.82574 8.95073L5.25 9.375ZM6.75 10.875L6.32574 11.2993C6.56005 11.5336 6.93995 11.5336 7.17426 11.2993L6.75 10.875ZM10.125 7.5L10.5493 7.07574C10.3149 6.84142 9.93505 6.84142 9.70073 7.07574L10.125 7.5ZM12.7007 10.9243C12.935 11.1586 13.3149 11.1586 13.5493 10.9243C13.7836 10.6899 13.7836 10.31 13.5493 10.0757L12.7007 10.9243ZM2.67426 12.7993L5.67426 9.79926L4.82574 8.95073L1.82574 11.9507L2.67426 12.7993ZM4.82574 9.79926L6.32574 11.2993L7.17426 10.4507L5.67426 8.95073L4.82574 9.79926ZM7.17426 11.2993L10.5493 7.92426L9.70073 7.07574L6.32574 10.4507L7.17426 11.2993ZM9.70073 7.92426L12.7007 10.9243L13.5493 10.0757L10.5493 7.07574L9.70073 7.92426ZM3.75 2.1H11.25V0.9H3.75V2.1ZM12.9 3.75V11.25H14.1V3.75H12.9ZM11.25 12.9H3.75V14.1H11.25V12.9ZM2.1 11.25V3.75H0.9V11.25H2.1ZM3.75 12.9C2.83873 12.9 2.1 12.1613 2.1 11.25H0.9C0.9 12.824 2.17599 14.1 3.75 14.1V12.9ZM12.9 11.25C12.9 12.1613 12.1613 12.9 11.25 12.9V14.1C12.824 14.1 14.1 12.824 14.1 11.25H12.9ZM11.25 2.1C12.1613 2.1 12.9 2.83873 12.9 3.75H14.1C14.1 2.17599 12.824 0.9 11.25 0.9V2.1ZM3.75 0.9C2.17599 0.9 0.9 2.17599 0.9 3.75H2.1C2.1 2.83873 2.83873 2.1 3.75 2.1V0.9ZM5.4 4.875C5.4 5.16495 5.16495 5.4 4.875 5.4V6.6C5.82769 6.6 6.6 5.82769 6.6 4.875H5.4ZM4.875 5.4C4.58505 5.4 4.35 5.16495 4.35 4.875H3.15C3.15 5.82769 3.92231 6.6 4.875 6.6V5.4ZM4.35 4.875C4.35 4.58505 4.58505 4.35 4.875 4.35V3.15C3.92231 3.15 3.15 3.92231 3.15 4.875H4.35ZM4.875 4.35C5.16495 4.35 5.4 4.58505 5.4 4.875H6.6C6.6 3.92231 5.82769 3.15 4.875 3.15V4.35Z" fill="#747474"/>
</svg>
