<svg width="18" height="18" viewBox="0 0 18 18" fill="none" xmlns="http://www.w3.org/2000/svg">
<path d="M8.9999 16.4004C8.74222 16.4004 8.44155 16.284 8.10706 15.9606C7.7692 15.634 7.43296 15.1275 7.1354 14.4474C6.88069 13.8652 6.6644 13.1788 6.50041 12.414C7.32322 12.2969 8.21756 12.2316 9.15863 12.2316C9.98388 12.2316 10.7725 12.2818 11.5081 12.3729C11.3431 13.1542 11.1237 13.8548 10.8644 14.4474C10.5668 15.1275 10.2306 15.634 9.89275 15.9606C9.55825 16.284 9.25759 16.4004 8.9999 16.4004ZM9.15863 10.8316C8.15455 10.8316 7.18246 10.9014 6.27322 11.0323C6.19722 10.3881 6.15615 9.70694 6.15615 9.00039C6.15615 8.29384 6.19722 7.6127 6.27322 6.96843C7.18246 7.09935 8.15455 7.16914 9.15863 7.16914C10.0478 7.16914 10.9127 7.11437 11.7315 7.01069C11.8044 7.64246 11.8437 8.30927 11.8437 9.00039C11.8437 9.69151 11.8044 10.3583 11.7315 10.9901C10.9127 10.8864 10.0478 10.8316 9.15863 10.8316ZM4.89402 6.71211C4.80381 7.44352 4.75615 8.21114 4.75615 9.00039C4.75615 9.78964 4.80381 10.5573 4.89402 11.2887C3.90983 11.5161 3.03565 11.8223 2.32209 12.1929C1.85916 11.2263 1.5999 10.1436 1.5999 9.00039C1.5999 7.85714 1.85916 6.77444 2.32209 5.80787C3.03565 6.1785 3.90983 6.48464 4.89402 6.71211ZM6.50041 5.58674C6.6644 4.82202 6.88069 4.13561 7.1354 3.5534C7.43296 2.87327 7.7692 2.36683 8.10706 2.04019C8.44155 1.71681 8.74222 1.60039 8.9999 1.60039C9.25759 1.60039 9.55825 1.71681 9.89275 2.04019C10.2306 2.36683 10.5668 2.87327 10.8644 3.5534C11.1237 4.14602 11.3431 4.8466 11.5081 5.62783C10.7725 5.71898 9.98388 5.76914 9.15863 5.76914C8.21756 5.76914 7.32322 5.70387 6.50041 5.58674ZM13.2437 9.00039C13.2437 8.2356 13.1989 7.49112 13.114 6.78022C14.1056 6.57232 14.9964 6.28642 15.7374 5.93563C16.1629 6.86946 16.3999 7.90725 16.3999 9.00039C16.3999 10.0935 16.1629 11.1313 15.7374 12.0651C14.9964 11.7144 14.1056 11.4285 13.114 11.2206C13.1989 10.5097 13.2437 9.76518 13.2437 9.00039ZM15.0356 4.71801C14.4426 4.98711 13.7166 5.21936 12.8901 5.3966C12.7058 4.50699 12.4543 3.69469 12.147 2.99225C12.0097 2.6784 11.8591 2.38144 11.6951 2.10654C13.0477 2.63574 14.2065 3.55153 15.0356 4.71801ZM12.8901 12.6042C13.7166 12.7814 14.4426 13.0137 15.0356 13.2828C14.2065 14.4492 13.0477 15.365 11.6951 15.8942C11.8591 15.6193 12.0097 15.3224 12.147 15.0085C12.4543 14.3061 12.7058 13.4938 12.8901 12.6042ZM5.85278 15.0085C5.99009 15.3224 6.14075 15.6193 6.30469 15.8942C4.9959 15.3822 3.86855 14.5082 3.04576 13.3953C3.60967 13.1125 4.31377 12.8655 5.12408 12.6727C5.30696 13.5355 5.55337 14.3242 5.85278 15.0085ZM6.3047 2.10654C6.14075 2.38144 5.99009 2.6784 5.85278 2.99225C5.55337 3.67661 5.30696 4.46526 5.12408 5.32809C4.31376 5.13528 3.60967 4.8883 3.04575 4.60548C3.86855 3.49263 4.9959 2.61861 6.3047 2.10654Z" stroke="#0EC243" stroke-width="1.4"/>
</svg>
