<svg width="17" height="16" viewBox="0 0 17 16" fill="none" xmlns="http://www.w3.org/2000/svg">
<path fill-rule="evenodd" clip-rule="evenodd" d="M8.9436 0C6.7708 0 6.4988 0.00888163 5.64547 0.0470204C4.79374 0.0851591 4.21187 0.217861 3.70307 0.41169C3.16974 0.60813 2.686 0.916375 2.286 1.31553C1.87919 1.70691 1.56433 2.18044 1.36334 2.70315C1.16654 3.20157 1.03054 3.77208 0.991604 4.60643C0.953204 5.44183 0.943604 5.70775 0.943604 7.83673C0.943604 9.96571 0.95267 10.2316 0.991604 11.0676C1.03054 11.9019 1.166 12.4719 1.36387 12.9703C1.5644 13.4928 1.87907 13.9666 2.28654 14.3585C2.68609 14.757 3.16948 15.0654 3.70307 15.2623C4.21187 15.4556 4.79374 15.5883 5.64547 15.6264C6.4988 15.6646 6.7708 15.6735 8.9436 15.6735C11.1164 15.6735 11.3884 15.6646 12.2417 15.6264C13.0935 15.5883 13.6753 15.4556 14.1841 15.2618C14.7175 15.0653 15.2012 14.7571 15.6012 14.3579C16.008 13.9666 16.3229 13.493 16.5239 12.9703C16.7212 12.4719 16.8567 11.9019 16.8956 11.0676C16.9345 10.2316 16.9436 9.96519 16.9436 7.83673C16.9436 5.70827 16.9345 5.44183 16.8956 4.60591C16.8567 3.77156 16.7212 3.20157 16.5233 2.70315C16.3225 2.18021 16.0076 1.70649 15.6007 1.315C15.2011 0.916491 14.7177 0.608056 14.1841 0.411167C13.6753 0.218384 13.0929 0.0851591 12.2412 0.0470204C11.3884 0.00940408 11.1169 0 8.9436 0ZM8.9436 1.41218C11.0796 1.41218 11.3329 1.42002 12.1767 1.45763C12.9564 1.49264 13.3799 1.61959 13.662 1.72774C14.0353 1.86932 14.302 2.03964 14.582 2.3134C14.862 2.58769 15.0353 2.84891 15.1799 3.21463C15.2897 3.491 15.4199 3.90583 15.4556 4.66965C15.494 5.49616 15.502 5.74432 15.502 7.83673C15.502 9.92914 15.494 10.1773 15.4556 11.0038C15.4199 11.7676 15.2903 12.1825 15.1799 12.4588C15.0518 12.7992 14.8475 13.1072 14.582 13.3601C14.3239 13.6202 14.0095 13.8204 13.662 13.9457C13.3799 14.0533 12.9564 14.1808 12.1767 14.2158C11.3329 14.2534 11.0801 14.2613 8.9436 14.2613C6.80707 14.2613 6.55427 14.2534 5.71054 14.2158C4.9308 14.1808 4.50734 14.0539 4.2252 13.9457C3.87771 13.8203 3.56334 13.6202 3.3052 13.3601C3.0397 13.1072 2.83541 12.7992 2.70734 12.4588C2.59747 12.1825 2.46734 11.7676 2.4316 11.0038C2.3932 10.1773 2.3852 9.92914 2.3852 7.83673C2.3852 5.74432 2.3932 5.49616 2.4316 4.66965C2.46734 3.90583 2.59694 3.491 2.70734 3.21463C2.85187 2.84891 3.02574 2.58769 3.3052 2.3134C3.56331 2.05325 3.87769 1.85311 4.2252 1.72774C4.50734 1.62011 4.9308 1.49264 5.71054 1.45763C6.55427 1.42002 6.8076 1.41218 8.9436 1.41218Z" fill="#AAAAAA"/>
<path fill-rule="evenodd" clip-rule="evenodd" d="M8.94353 10.4514C8.59299 10.4514 8.24588 10.3838 7.92202 10.2524C7.59816 10.121 7.3039 9.92837 7.05603 9.68556C6.80816 9.44275 6.61154 9.15449 6.47739 8.83724C6.34325 8.51999 6.2742 8.17997 6.2742 7.83658C6.2742 7.49319 6.34325 7.15317 6.47739 6.83592C6.61154 6.51867 6.80816 6.23041 7.05603 5.9876C7.3039 5.74479 7.59816 5.55218 7.92202 5.42077C8.24588 5.28936 8.59299 5.22173 8.94353 5.22173C9.65147 5.22173 10.3304 5.49722 10.831 5.9876C11.3316 6.47798 11.6128 7.14308 11.6128 7.83658C11.6128 8.53008 11.3316 9.19518 10.831 9.68556C10.3304 10.1759 9.65147 10.4514 8.94353 10.4514ZM8.94353 3.80851C7.85296 3.80851 6.80706 4.23289 6.03591 4.9883C5.26477 5.74371 4.83154 6.76827 4.83154 7.83658C4.83154 8.90489 5.26477 9.92945 6.03591 10.6849C6.80706 11.4403 7.85296 11.8647 8.94353 11.8647C10.0341 11.8647 11.08 11.4403 11.8511 10.6849C12.6223 9.92945 13.0555 8.90489 13.0555 7.83658C13.0555 6.76827 12.6223 5.74371 11.8511 4.9883C11.08 4.23289 10.0341 3.80851 8.94353 3.80851ZM14.2518 3.73536C14.2518 3.98789 14.1494 4.23008 13.9671 4.40864C13.7848 4.58721 13.5376 4.68753 13.2798 4.68753C13.022 4.68753 12.7748 4.58721 12.5925 4.40864C12.4102 4.23008 12.3078 3.98789 12.3078 3.73536C12.3078 3.48284 12.4102 3.24065 12.5925 3.06208C12.7748 2.88352 13.022 2.7832 13.2798 2.7832C13.5376 2.7832 13.7848 2.88352 13.9671 3.06208C14.1494 3.24065 14.2518 3.48284 14.2518 3.73536Z" fill="#AAAAAA"/>
</svg>
