<svg width="18" height="14" viewBox="0 0 18 14" fill="none" xmlns="http://www.w3.org/2000/svg">
<path d="M15.3 12.625L4.05005 1.375M7.65005 5.83118C7.36999 6.13994 7.20005 6.54553 7.20005 6.98973C7.20005 7.95707 8.00594 8.74125 9.00005 8.74125C9.45841 8.74125 9.87675 8.57454 10.1945 8.30004M15.3292 8.74125C15.9488 7.81362 16.2 7.0571 16.2 7.0571C16.2 7.0571 14.5616 1.825 9.00005 1.825C8.68782 1.825 8.38795 1.84149 8.10005 1.87262M13.05 11.0121C12.017 11.6711 10.687 12.1371 9.00005 12.1096C3.50774 12.0197 1.80005 7.0571 1.80005 7.0571C1.80005 7.0571 2.59344 4.52356 4.95005 2.98249" stroke="#AAAAAA" stroke-width="1.6" stroke-linecap="round"/>
</svg>
