<svg width="16" height="16" viewBox="0 0 16 16" fill="none" xmlns="http://www.w3.org/2000/svg">
<path d="M14.4974 13.0786C14.4974 13.0786 13.6284 13.9321 13.4154 14.1824C13.0685 14.5526 12.6598 14.7274 12.1239 14.7274C12.0724 14.7274 12.0175 14.7274 11.9659 14.7239C10.9458 14.6588 9.99782 14.2612 9.28682 13.9219C7.34274 12.9827 5.63566 11.6493 4.2171 9.95937C3.04584 8.55056 2.26271 7.24802 1.74406 5.84949C1.42463 4.99598 1.30784 4.33099 1.35936 3.70372C1.39371 3.30267 1.54828 2.97018 1.83336 2.68567L3.00462 1.51681C3.17292 1.35913 3.35153 1.27344 3.52671 1.27344C3.7431 1.27344 3.91827 1.40369 4.02818 1.51338C4.03162 1.51681 4.03505 1.52024 4.03849 1.52366C4.24801 1.71905 4.44723 1.92128 4.65675 2.13723C4.76322 2.24692 4.87314 2.35661 4.98305 2.46972L5.92074 3.4055C6.28483 3.76884 6.28483 4.10476 5.92074 4.46811C5.82114 4.56751 5.72496 4.66691 5.62535 4.76289C5.33683 5.05768 5.56348 4.83149 5.26466 5.09886C5.25779 5.10571 5.25092 5.10914 5.24748 5.116C4.95209 5.41078 5.00705 5.69871 5.06887 5.8941C5.07231 5.90438 5.07574 5.91466 5.07918 5.92495C5.32305 6.51452 5.66652 7.06982 6.18861 7.73137L6.19205 7.7348C7.14004 8.90024 8.13956 9.80859 9.24212 10.5044C9.38295 10.5935 9.52721 10.6655 9.6646 10.7341C9.78825 10.7958 9.90503 10.8541 10.0046 10.9158C10.0184 10.9226 10.0321 10.9329 10.0459 10.9398C10.1626 10.998 10.2726 11.0254 10.3859 11.0254C10.671 11.0254 10.8496 10.8472 10.908 10.7889L11.5812 10.117C11.698 10.0005 11.8835 9.85996 12.0999 9.85996C12.3129 9.85996 12.488 9.99365 12.5945 10.1102C12.5979 10.1136 12.5979 10.1136 12.6014 10.117L14.4939 12.0057C14.8477 12.3554 14.4974 13.0786 14.4974 13.0786Z" stroke="#1B1B1B" stroke-width="1.6" stroke-linecap="round" stroke-linejoin="round"/>
</svg>
