<svg width="50" height="50" viewBox="0 0 50 50" fill="none" xmlns="http://www.w3.org/2000/svg">
<g filter="url(#filter0_b_10195_13540)">
<path d="M36.9131 24.707C36.9131 31.1728 31.6719 36.4141 25.2061 36.4141C18.7403 36.4141 13.499 31.1728 13.499 24.707C13.499 18.2424 18.7403 13 25.2061 13C31.6719 13 36.9131 18.2424 36.9131 24.707Z" fill="url(#paint0_linear_10195_13540)"/>
</g>
<g opacity="0.5" filter="url(#filter1_f_10195_13540)">
<path d="M32.7084 24.6965C32.7084 28.8135 29.3711 32.1507 25.2541 32.1507C21.1371 32.1507 17.7998 28.8135 17.7998 24.6965C17.7998 20.5802 21.1371 17.2422 25.2541 17.2422C29.3711 17.2422 32.7084 20.5802 32.7084 24.6965Z" fill="#30C53E"/>
</g>
<g filter="url(#filter2_b_10195_13540)">
<path d="M41.501 29.2871C41.501 35.7529 36.2597 40.9942 29.794 40.9942C23.3282 40.9942 18.0869 35.7529 18.0869 29.2871C18.0869 22.8225 23.3282 17.5801 29.794 17.5801C36.2597 17.5801 41.501 22.8225 41.501 29.2871Z" fill="#27A934"/>
<path d="M29.794 41.2442C36.3978 41.2442 41.751 35.891 41.751 29.2871C41.751 22.6844 36.3978 17.3301 29.794 17.3301C23.1901 17.3301 17.8369 22.6844 17.8369 29.2871C17.8369 35.891 23.1901 41.2442 29.794 41.2442Z" stroke="url(#paint1_linear_10195_13540)" stroke-width="0.5" stroke-linecap="round" stroke-linejoin="round"/>
</g>
<g filter="url(#filter3_bd_10195_13540)">
<path d="M34.4772 29.292C34.4772 29.5879 34.384 29.8849 34.1978 30.1228C34.1629 30.1694 33.9999 30.3617 33.8718 30.4869L33.802 30.5552C32.8242 31.5919 30.3913 33.1509 29.1574 33.6505C29.1574 33.6619 28.4241 33.9589 28.0749 33.9691H28.0283C27.4928 33.9691 26.9923 33.6744 26.7362 33.1965C26.5965 32.9336 26.4685 32.1711 26.4568 32.1609C26.3521 31.477 26.2822 30.43 26.2822 29.2806C26.2822 28.0755 26.3521 26.9819 26.4801 26.3105C26.4801 26.2991 26.6082 25.6846 26.6896 25.4798C26.8177 25.185 27.0505 24.9335 27.3415 24.7742C27.5743 24.6616 27.8188 24.6035 28.0749 24.6035C28.3426 24.616 28.8431 24.7856 29.041 24.8653C30.3448 25.366 32.8358 27.0047 33.7904 28.0061C33.9533 28.1654 34.1279 28.36 34.1745 28.4044C34.3724 28.6547 34.4772 28.962 34.4772 29.292Z" fill="url(#paint2_linear_10195_13540)"/>
<path d="M34.0009 29.9686L34.0009 29.9686L33.9976 29.9729C33.9707 30.009 33.8162 30.1917 33.6971 30.3081L33.6272 30.3764L33.6271 30.3763L33.6201 30.3837C33.1517 30.8804 32.3186 31.5165 31.4384 32.0954C30.5593 32.6735 29.6584 33.178 29.0636 33.4188L28.9074 33.482V33.4861C28.8414 33.5118 28.7578 33.5426 28.6668 33.5735C28.4392 33.6507 28.2037 33.7143 28.0708 33.7191H28.0283C27.5842 33.7191 27.169 33.4745 26.9568 33.0788C26.9056 32.9821 26.8449 32.7608 26.7923 32.5287C26.7675 32.4191 26.7465 32.3169 26.7306 32.2397L26.7303 32.2381C26.7227 32.201 26.7159 32.168 26.7107 32.1441C26.7081 32.1323 26.7052 32.1196 26.7023 32.1085C26.702 32.1071 26.7015 32.1053 26.701 32.1033C26.6004 31.4355 26.5322 30.4112 26.5322 29.2806C26.5322 28.0803 26.6021 27.0054 26.7257 26.3573L26.7301 26.3341V26.3331L26.7309 26.329C26.7343 26.312 26.7394 26.2873 26.7459 26.2567C26.7589 26.1957 26.7771 26.1131 26.7978 26.0245C26.8403 25.8423 26.888 25.6592 26.9206 25.5756C27.0252 25.3372 27.2157 25.1297 27.4561 24.9965C27.6527 24.9023 27.8561 24.8544 28.0687 24.8535C28.1706 24.8593 28.335 24.8965 28.5136 24.9491C28.6897 25.0008 28.8566 25.0605 28.9477 25.0972L28.9477 25.0972L28.9514 25.0986C29.5779 25.3393 30.5088 25.8624 31.4089 26.4565C32.3095 27.051 33.1519 27.6987 33.6094 28.1786L33.6093 28.1787L33.6156 28.1849C33.6932 28.2608 33.7747 28.3461 33.8441 28.4198C33.8585 28.4351 33.8729 28.4504 33.8869 28.4653C33.9264 28.5074 33.9627 28.5461 33.9873 28.5709C34.1433 28.7734 34.2272 29.0213 34.2272 29.292C34.2272 29.5367 34.1499 29.7784 34.0009 29.9686ZM29.0349 33.4335C29.035 33.4334 29.035 33.4334 29.0348 33.4335L29.0349 33.4335Z" stroke="url(#paint3_linear_10195_13540)" stroke-width="0.5"/>
</g>
<defs>
<filter id="filter0_b_10195_13540" x="0.499023" y="0" width="49.4141" height="49.4141" filterUnits="userSpaceOnUse" color-interpolation-filters="sRGB">
<feFlood flood-opacity="0" result="BackgroundImageFix"/>
<feGaussianBlur in="BackgroundImageFix" stdDeviation="6.5"/>
<feComposite in2="SourceAlpha" operator="in" result="effect1_backgroundBlur_10195_13540"/>
<feBlend mode="normal" in="SourceGraphic" in2="effect1_backgroundBlur_10195_13540" result="shape"/>
</filter>
<filter id="filter1_f_10195_13540" x="0.799805" y="0.242188" width="48.9082" height="48.9082" filterUnits="userSpaceOnUse" color-interpolation-filters="sRGB">
<feFlood flood-opacity="0" result="BackgroundImageFix"/>
<feBlend mode="normal" in="SourceGraphic" in2="BackgroundImageFix" result="shape"/>
<feGaussianBlur stdDeviation="8.5" result="effect1_foregroundBlur_10195_13540"/>
</filter>
<filter id="filter2_b_10195_13540" x="-6.41309" y="-6.91992" width="72.4141" height="72.4141" filterUnits="userSpaceOnUse" color-interpolation-filters="sRGB">
<feFlood flood-opacity="0" result="BackgroundImageFix"/>
<feGaussianBlur in="BackgroundImageFix" stdDeviation="12"/>
<feComposite in2="SourceAlpha" operator="in" result="effect1_backgroundBlur_10195_13540"/>
<feBlend mode="normal" in="SourceGraphic" in2="effect1_backgroundBlur_10195_13540" result="shape"/>
</filter>
<filter id="filter3_bd_10195_13540" x="11.2822" y="9.60352" width="38.1953" height="39.3652" filterUnits="userSpaceOnUse" color-interpolation-filters="sRGB">
<feFlood flood-opacity="0" result="BackgroundImageFix"/>
<feGaussianBlur in="BackgroundImageFix" stdDeviation="7.5"/>
<feComposite in2="SourceAlpha" operator="in" result="effect1_backgroundBlur_10195_13540"/>
<feColorMatrix in="SourceAlpha" type="matrix" values="0 0 0 0 0 0 0 0 0 0 0 0 0 0 0 0 0 0 127 0" result="hardAlpha"/>
<feOffset dx="5" dy="5"/>
<feGaussianBlur stdDeviation="5"/>
<feColorMatrix type="matrix" values="0 0 0 0 1 0 0 0 0 0.321569 0 0 0 0 0.54902 0 0 0 0.5 0"/>
<feBlend mode="normal" in2="effect1_backgroundBlur_10195_13540" result="effect2_dropShadow_10195_13540"/>
<feBlend mode="normal" in="SourceGraphic" in2="effect2_dropShadow_10195_13540" result="shape"/>
</filter>
<linearGradient id="paint0_linear_10195_13540" x1="26.9298" y1="26.2749" x2="6.35609" y2="36.2783" gradientUnits="userSpaceOnUse">
<stop stop-color="#2FA934"/>
<stop offset="1" stop-color="#37B544"/>
</linearGradient>
<linearGradient id="paint1_linear_10195_13540" x1="21.8141" y1="20.3078" x2="36.7497" y2="38.8061" gradientUnits="userSpaceOnUse">
<stop stop-color="white" stop-opacity="0.25"/>
<stop offset="1" stop-color="white" stop-opacity="0.18"/>
</linearGradient>
<linearGradient id="paint2_linear_10195_13540" x1="33.8961" y1="26.2948" x2="24.7655" y2="26.5552" gradientUnits="userSpaceOnUse">
<stop stop-color="white"/>
<stop offset="1" stop-color="white" stop-opacity="0.64"/>
</linearGradient>
<linearGradient id="paint3_linear_10195_13540" x1="27.5867" y1="25.6946" x2="33.6785" y2="32.2964" gradientUnits="userSpaceOnUse">
<stop stop-color="white" stop-opacity="0.25"/>
<stop offset="1" stop-color="white" stop-opacity="0.18"/>
</linearGradient>
</defs>
</svg>
