<svg width="49" height="51" viewBox="0 0 49 51" fill="none" xmlns="http://www.w3.org/2000/svg">
<path d="M20.2043 26.6713C18.3143 24.9609 17.948 22.0634 19.3547 19.951C20.7613 17.8385 23.4889 17.1899 25.681 18.4466L28.6507 20.1491C31.3944 21.722 32.2523 25.4019 30.4917 28.046C28.7311 30.69 25.1303 31.1291 22.7647 28.9883L20.2043 26.6713Z" fill="url(#paint0_linear_10195_13531)"/>
<g opacity="0.5" filter="url(#filter0_f_10195_13531)">
<path d="M21.7626 25.6042C20.6454 24.5932 20.4289 22.8805 21.2604 21.6319C22.0918 20.3832 23.7041 19.9999 24.9998 20.7427L26.7551 21.749C28.3769 22.6787 28.884 24.8539 27.8433 26.4168C26.8027 27.9796 24.6743 28.2392 23.276 26.9738L21.7626 25.6042Z" fill="#3BA72A"/>
</g>
<g filter="url(#filter1_b_10195_13531)">
<mask id="path-3-outside-1_10195_13531" maskUnits="userSpaceOnUse" x="13" y="21.2539" width="23" height="22" fill="black">
<rect fill="white" x="13" y="21.2539" width="23" height="22"/>
<path d="M34.2125 33.7467C33.3504 33.7467 32.649 33.0205 32.649 32.1281C32.649 31.2346 33.3504 30.5085 34.2125 30.5085C34.4214 30.5085 34.622 30.4226 34.769 30.2705C34.917 30.1172 35 29.9096 35 29.6933L34.9989 26.7562C34.9989 24.2735 33.047 22.2539 30.6488 22.2539H18.3512C15.953 22.2539 14.001 24.2735 14.001 26.7562L14 29.7878C14 30.0041 14.0829 30.2118 14.231 30.365C14.378 30.5172 14.5785 30.6031 14.7875 30.6031C15.6789 30.6031 16.351 31.2585 16.351 32.1281C16.351 33.0205 15.6495 33.7467 14.7875 33.7467C14.3528 33.7467 14 34.1119 14 34.5619V37.4968C14 39.9795 15.9509 42.0002 18.3502 42.0002H30.6498C33.0491 42.0002 35 39.9795 35 37.4968V34.5619C35 34.1119 34.6472 33.7467 34.2125 33.7467Z"/>
</mask>
<path d="M34.2125 33.7467C33.3504 33.7467 32.649 33.0205 32.649 32.1281C32.649 31.2346 33.3504 30.5085 34.2125 30.5085C34.4214 30.5085 34.622 30.4226 34.769 30.2705C34.917 30.1172 35 29.9096 35 29.6933L34.9989 26.7562C34.9989 24.2735 33.047 22.2539 30.6488 22.2539H18.3512C15.953 22.2539 14.001 24.2735 14.001 26.7562L14 29.7878C14 30.0041 14.0829 30.2118 14.231 30.365C14.378 30.5172 14.5785 30.6031 14.7875 30.6031C15.6789 30.6031 16.351 31.2585 16.351 32.1281C16.351 33.0205 15.6495 33.7467 14.7875 33.7467C14.3528 33.7467 14 34.1119 14 34.5619V37.4968C14 39.9795 15.9509 42.0002 18.3502 42.0002H30.6498C33.0491 42.0002 35 39.9795 35 37.4968V34.5619C35 34.1119 34.6472 33.7467 34.2125 33.7467Z" fill="#35A62B" fill-opacity="0.98"/>
<path d="M34.2125 34.7467C34.7648 34.7467 35.2125 34.2989 35.2125 33.7467C35.2125 33.1944 34.7648 32.7467 34.2125 32.7467V34.7467ZM34.769 30.2705L34.0498 29.5757L34.769 30.2705ZM35 29.6933H36L36 29.6929L35 29.6933ZM34.9989 26.7562H33.9989V26.7566L34.9989 26.7562ZM14.001 26.7562L15.001 26.7566V26.7562H14.001ZM14 29.7878L13 29.7875V29.7878H14ZM14.231 30.365L14.9502 29.6703L14.231 30.365ZM34.2125 32.7467C33.6602 32.7467 33.2125 33.1944 33.2125 33.7467C33.2125 34.2989 33.6602 34.7467 34.2125 34.7467V32.7467ZM34.2125 32.7467C33.9351 32.7467 33.649 32.5012 33.649 32.1281H31.649C31.649 33.5399 32.7658 34.7467 34.2125 34.7467V32.7467ZM33.649 32.1281C33.649 31.7535 33.9355 31.5085 34.2125 31.5085V29.5085C32.7654 29.5085 31.649 30.7157 31.649 32.1281H33.649ZM34.2125 31.5085C34.6969 31.5085 35.1558 31.3094 35.4882 30.9652L34.0498 29.5757C34.0882 29.5359 34.146 29.5085 34.2125 29.5085V31.5085ZM35.4882 30.9652C35.8199 30.6219 36 30.1637 36 29.6933H34C34 29.6554 34.0142 29.6125 34.0498 29.5757L35.4882 30.9652ZM36 29.6929L35.9989 26.7559L33.9989 26.7566L34 29.6936L36 29.6929ZM35.9989 26.7562C35.9989 23.7538 33.6313 21.2539 30.6488 21.2539V23.2539C32.4627 23.2539 33.9989 24.7932 33.9989 26.7562H35.9989ZM30.6488 21.2539H18.3512V23.2539H30.6488V21.2539ZM18.3512 21.2539C15.3687 21.2539 13.001 23.7538 13.001 26.7562H15.001C15.001 24.7932 16.5373 23.2539 18.3512 23.2539V21.2539ZM13.0011 26.7559L13 29.7875L15 29.7882L15.001 26.7566L13.0011 26.7559ZM13 29.7878C13 30.2583 13.1801 30.7165 13.5118 31.0598L14.9502 29.6703C14.9858 29.7071 15 29.75 15 29.7878H13ZM13.5118 31.0598C13.8442 31.404 14.3031 31.6031 14.7875 31.6031V29.6031C14.854 29.6031 14.9118 29.6305 14.9502 29.6703L13.5118 31.0598ZM14.7875 31.6031C15.1503 31.6031 15.351 31.8341 15.351 32.1281H17.351C17.351 30.6829 16.2076 29.6031 14.7875 29.6031V31.6031ZM15.351 32.1281C15.351 32.5012 15.0649 32.7467 14.7875 32.7467V34.7467C16.2342 34.7467 17.351 33.5399 17.351 32.1281H15.351ZM14.7875 32.7467C13.7682 32.7467 13 33.5925 13 34.5619H15C15 34.6313 14.9374 34.7467 14.7875 34.7467V32.7467ZM13 34.5619V37.4968H15V34.5619H13ZM13 37.4968C13 40.4987 15.3661 43.0002 18.3502 43.0002V41.0002C16.5357 41.0002 15 39.4603 15 37.4968H13ZM18.3502 43.0002H30.6498V41.0002H18.3502V43.0002ZM30.6498 43.0002C33.6339 43.0002 36 40.4987 36 37.4968H34C34 39.4603 32.4643 41.0002 30.6498 41.0002V43.0002ZM36 37.4968V34.5619H34V37.4968H36ZM36 34.5619C36 33.5925 35.2318 32.7467 34.2125 32.7467V34.7467C34.0626 34.7467 34 34.6313 34 34.5619H36Z" fill="url(#paint1_linear_10195_13531)" mask="url(#path-3-outside-1_10195_13531)"/>
</g>
<g filter="url(#filter2_bd_10195_13531)">
<path d="M28.1015 31.6757L26.8636 32.935L27.1565 34.7155C27.2069 35.0238 27.0883 35.3276 26.8457 35.5097C26.6053 35.694 26.2913 35.7171 26.0267 35.5701L24.499 34.7309L22.9681 35.5712C22.8547 35.6337 22.7308 35.6666 22.6079 35.6666C22.4473 35.6666 22.2887 35.614 22.1522 35.5108C21.9107 35.3276 21.7921 35.0238 21.8425 34.7155L22.1344 32.935L20.8964 31.6757C20.6822 31.4585 20.6077 31.1392 20.7001 30.8419C20.7935 30.5457 21.035 30.3351 21.3301 30.2912L23.0374 30.0312L23.8028 28.411C23.9362 28.1323 24.2029 27.959 24.499 27.959H24.5011C24.7982 27.9601 25.0649 28.1334 25.1962 28.4121L25.9616 30.0312L27.6721 30.2923C27.964 30.3351 28.2055 30.5457 28.2979 30.8419C28.3913 31.1392 28.3168 31.4585 28.1015 31.6757Z" fill="url(#paint2_linear_10195_13531)"/>
<path d="M28.0302 31.6056L28.0305 31.6053C28.2188 31.4152 28.2852 31.1349 28.2025 30.8719L28.2024 30.8717C28.1209 30.6103 27.9095 30.4282 27.6576 30.3913L27.657 30.3912L25.9465 30.1301L25.894 30.1221L25.8712 30.074L25.1058 28.4548L25.1057 28.4547C24.9903 28.2095 24.7578 28.06 24.5009 28.059H24.499C24.2436 28.059 24.0108 28.2081 23.8931 28.4539C23.8931 28.454 23.8931 28.4541 23.893 28.4541L23.1278 30.074L23.1051 30.1221L23.0524 30.1301L21.3451 30.3901L21.3448 30.3902C21.0894 30.4281 20.8781 30.6105 20.7955 30.8718C20.7138 31.135 20.7802 31.4154 20.9676 31.6055L20.9678 31.6056L22.2057 32.8649L22.2413 32.9011L22.2331 32.9512L21.9412 34.7316C21.8965 35.0046 22.0017 35.2711 22.2126 35.4311C22.3321 35.5214 22.4696 35.5666 22.6079 35.5666C22.7129 35.5666 22.8203 35.5385 22.9198 35.4836L22.92 35.4835L24.4509 34.6432L24.499 34.6168L24.5471 34.6432L26.0749 35.4824L26.0753 35.4827C26.3051 35.6103 26.5761 35.5904 26.7849 35.4304L26.7857 35.4298L26.7857 35.4298C26.9973 35.2709 27.1025 35.0047 27.0579 34.7317L28.0302 31.6056ZM28.0302 31.6056L26.7923 32.8649L26.7567 32.9012L26.7649 32.9513L27.0578 34.7316L28.0302 31.6056Z" stroke="url(#paint3_linear_10195_13531)" stroke-opacity="0.5" stroke-width="0.2"/>
</g>
<defs>
<filter id="filter0_f_10195_13531" x="0.755859" y="0.365234" width="47.6299" height="47.4121" filterUnits="userSpaceOnUse" color-interpolation-filters="sRGB">
<feFlood flood-opacity="0" result="BackgroundImageFix"/>
<feBlend mode="normal" in="SourceGraphic" in2="BackgroundImageFix" result="shape"/>
<feGaussianBlur stdDeviation="10" result="effect1_foregroundBlur_10195_13531"/>
</filter>
<filter id="filter1_b_10195_13531" x="-11" y="-2.74609" width="71" height="69.7461" filterUnits="userSpaceOnUse" color-interpolation-filters="sRGB">
<feFlood flood-opacity="0" result="BackgroundImageFix"/>
<feGaussianBlur in="BackgroundImageFix" stdDeviation="12"/>
<feComposite in2="SourceAlpha" operator="in" result="effect1_backgroundBlur_10195_13531"/>
<feBlend mode="normal" in="SourceGraphic" in2="effect1_backgroundBlur_10195_13531" result="shape"/>
</filter>
<filter id="filter2_bd_10195_13531" x="5.66113" y="12.959" width="37.6768" height="37.707" filterUnits="userSpaceOnUse" color-interpolation-filters="sRGB">
<feFlood flood-opacity="0" result="BackgroundImageFix"/>
<feGaussianBlur in="BackgroundImageFix" stdDeviation="7.5"/>
<feComposite in2="SourceAlpha" operator="in" result="effect1_backgroundBlur_10195_13531"/>
<feColorMatrix in="SourceAlpha" type="matrix" values="0 0 0 0 0 0 0 0 0 0 0 0 0 0 0 0 0 0 127 0" result="hardAlpha"/>
<feOffset dx="5" dy="5"/>
<feGaussianBlur stdDeviation="5"/>
<feColorMatrix type="matrix" values="0 0 0 0 0.15375 0 0 0 0 0.522433 0 0 0 0 0.9 0 0 0 0.5 0"/>
<feBlend mode="normal" in2="effect1_backgroundBlur_10195_13531" result="effect2_dropShadow_10195_13531"/>
<feBlend mode="normal" in="SourceGraphic" in2="effect2_dropShadow_10195_13531" result="shape"/>
</filter>
<linearGradient id="paint0_linear_10195_13531" x1="22.18" y1="15.7079" x2="20.8926" y2="31.7585" gradientUnits="userSpaceOnUse">
<stop stop-color="#2E9B2B"/>
<stop offset="1" stop-color="#1FCD3B"/>
</linearGradient>
<linearGradient id="paint1_linear_10195_13531" x1="17.3429" y1="24.5544" x2="33.4362" y2="41.9892" gradientUnits="userSpaceOnUse">
<stop stop-color="#D9D9D9"/>
<stop offset="1" stop-color="#F3FFF7" stop-opacity="0.42"/>
</linearGradient>
<linearGradient id="paint2_linear_10195_13531" x1="27.7932" y1="29.3508" x2="19.2424" y2="29.6285" gradientUnits="userSpaceOnUse">
<stop stop-color="white"/>
<stop offset="1" stop-color="white" stop-opacity="0.2"/>
</linearGradient>
<linearGradient id="paint3_linear_10195_13531" x1="21.488" y1="30.5445" x2="28.0063" y2="30.5804" gradientUnits="userSpaceOnUse">
<stop stop-color="white"/>
<stop offset="1" stop-color="white" stop-opacity="0"/>
</linearGradient>
</defs>
</svg>
